# xmcd
#
# Track frame offsets:
#	150
#	16576
#	40089
#	72614
#	94385
#	122721
#	149519
#	177289
#	191901
#	217142
#	234031
#	247954
#	258977
#	275889
#	287325
#	302360
#	312715
#
# Disc length: 4298 seconds
#
# Revision: 0
# Processed by: cddbd v1.5PL3 Copyright (c) Steve Scherf et al.
# Submitted via: audiograbber 1.83.01
#
DISCID=fe10c811
DTITLE=Jerry Lee Lewis - Mercury Smashes CD 07
DYEAR=1900
DGENRE=
TTITLE0=Meat Man (Master - Vocal/Piano Mix)
TTITLE1=Big Blue Diamonds (Instrumental - Piano Mix)
TTITLE2=Sure Miss Those Good Old Times (Duet Vocal/Piano Mix and Rehearsal Vocal
TTITLE2=/Piano Mix)
TTITLE3=Chatter: Jerry Lee Lewis, Tony Joe White, Huey Meaux
TTITLE4=When A Man Loves A Woman (Alternate - Vocal/Piano Mix)
TTITLE5=Silver Threads Among The Gold (Master - Vocal/Piano Mix)
TTITLE6=Hold On I'm Coming (Fast) (False Start - Vocal/Piano Mix and Fast Master 
TTITLE6=Vocal/Piano Mix and Slow Rehearsal Vocal/Piano Mix)
TTITLE7=Cry (4) (Rehearsal - Vocal/Piano Mix)
TTITLE8=Margie (False Start and Take) (Rehearsal Vocal/Piano Mix)
TTITLE9=A Picture From Life's Other Side
TTITLE10=I've Forgot More About You Than He'll Ever Know
TTITLE11=Until The Day Forever Ends
TTITLE12=Boogie Woogie Country Man
TTITLE13=I Can Still Hear The Music In The Restroom
TTITLE14=Speak A Little Louder To Us Jesus
TTITLE15=Honey Hush
TTITLE16=Jesus Is On The Mainline (Call Him Sometime)
EXTD=
EXTT0=
EXTT1=
EXTT2=
EXTT3=
EXTT4=
EXTT5=
EXTT6=
EXTT7=
EXTT8=
EXTT9=
EXTT10=
EXTT11=
EXTT12=
EXTT13=
EXTT14=
EXTT15=
EXTT16=
PLAYORDER=
